<?xml version="1.0" encoding="UTF-8"?><svg id="a" xmlns="http://www.w3.org/2000/svg" viewBox="0 0 1047.744 102.86"><path d="M30.498,5.98h-15.787v87.307h15.787v5.98H0V0h30.498v5.98Z" fill="#1a1a1a"/><path d="M54.416,78.815c0,4.306-3.468,7.894-7.654,7.894-4.425,0-8.013-3.468-8.013-7.774,0-4.425,3.468-7.894,7.774-7.894,4.425,0,7.893,3.468,7.893,7.774ZM83.718,19.495c0,4.186-3.468,7.774-7.654,7.774-4.545,0-8.013-3.468-8.013-7.774,0-4.425,3.468-7.894,7.774-7.894,4.425,0,7.894,3.468,7.894,7.894ZM113.019,78.815c0,4.306-3.588,7.894-7.654,7.894-4.545,0-8.013-3.468-8.013-7.774,0-4.425,3.468-7.894,7.774-7.894s7.894,3.588,7.894,7.774Z" fill="#1a1a1a"/><path d="M119.595,93.287h15.787V5.98h-15.787V0h30.497v99.267h-30.497v-5.98Z" fill="#1a1a1a"/><path d="M178.523,52.54h1.39c4.098-.073,5.488-.293,6.073-1.025.439-.659.439-.805.439-4.537V12.147c0-3.732,0-3.878-.439-4.537-.585-.732-1.976-.951-6.073-1.025h-1.39v-3.439h23.27c8.342,0,13.757,1.171,17.782,3.732,6.732,4.391,10.391,12.294,10.391,22.392,0,10.976-4.098,19.318-11.489,23.489-3.879,2.195-8.854,3.22-15.367,3.22h-24.587v-3.439ZM203.768,52.54c11.854,0,16.538-6.586,16.538-22.977,0-16.172-5.195-22.977-17.709-22.977h-3.805c-3.659,0-4.171.512-4.171,4.098v37.832c0,3.586.439,4.025,4.171,4.025h4.976Z" fill="#1a1a1a"/><path d="M278.846,21.806h-3.146c-2.342-12.659-5.342-15.294-17.343-15.22h-3.805c-3.951.073-4.683.585-4.61,3.659v16.684h1.756c6.952,0,9.806-2.854,10.245-10.025h3.439v24.002h-3.439c-.293-8.122-3-10.83-10.537-10.537h-1.463v18.66c-.22,2.635.878,3.366,5.268,3.513h4.83c11.196-.293,14.196-3.074,16.977-16.099h3.22l-1.464,19.538h-44.93v-3.439h1.317c4.171,0,5.561-.293,6.147-1.025.439-.659.439-.805.439-4.537V12.147c0-3.732,0-3.878-.439-4.537-.585-.732-1.976-.951-6.147-1.025h-1.317v-3.439h43.979l1.024,18.66Z" fill="#1a1a1a"/><path d="M319.602,42.149l13.391-39.003h18.367v3.439h-1.317c-4.171.073-5.561.293-6.147,1.025-.439.659-.439.805-.439,4.537v34.832c0,3.805,0,3.878.439,4.61.585.732,1.976.951,6.147.951h1.317v3.439h-24.002v-3.439h1.317c4.171,0,5.561-.22,6.147-.951.439-.732.439-.878.439-4.61V7.83l-16.318,48.15h-2.927l-17.416-48.15v32.344c0,9.952,1.39,12.001,8.415,12.367v3.439h-20.855v-3.439c7.098-.366,8.488-2.415,8.488-12.367V12.147c0-3.805,0-3.878-.512-4.537-.512-.732-1.903-.951-6.074-1.025h-1.39v-3.439h18.879l14.05,39.003Z" fill="#1a1a1a"/><path d="M407.264,29.563c0,15.659-10.83,27.514-25.172,27.514-6.293,0-11.855-2.122-16.245-6.147-5.561-5.122-8.927-13.098-8.927-21.294,0-8.342,3.293-16.245,8.927-21.44,4.464-4.098,10.025-6.147,16.538-6.147,14.05,0,24.88,12.001,24.88,27.514ZM370.237,11.781c-2.708,4.391-3.659,8.781-3.659,17.635,0,9.074.878,13.538,3.659,17.928,2.634,4.171,6.659,6.293,11.855,6.293s9.22-2.195,11.854-6.293c2.708-4.39,3.659-8.854,3.659-17.782,0-9.001-.951-13.464-3.659-17.782-2.634-4.025-6.732-6.293-11.635-6.293-5.488,0-9.367,2.049-12.074,6.293Z" fill="#1a1a1a"/><path d="M458.412,23.782h-3.22c-1.756-5.781-2.781-8.488-4.171-10.903-2.781-4.683-7.317-7.391-12.44-7.391-4.757,0-9.22,2.561-11.489,6.659-2.488,4.391-3.586,9.879-3.586,18.221,0,15.806,5.122,23.27,15.952,23.27,9.001,0,14.562-5.415,16.538-16.318l3.439.585c-1.683,12.294-9.147,19.172-20.855,19.172-14.416,0-24.734-11.196-24.734-27.002,0-7.537,2.195-13.684,6.879-19.245,4.903-5.854,10.83-8.781,17.782-8.781,5.049,0,7.757,1.024,13.099,4.903l2.927-4.318h2.781l1.098,21.148Z" fill="#1a1a1a"/><path d="M481.387,47.052c0,3.659,0,3.805.439,4.537.585.732,1.976.951,6.147.951h1.317v3.439h-24.002v-3.439h1.317c4.171,0,5.561-.22,6.147-.951.439-.732.439-.878.439-4.537V12.147c0-3.732,0-3.878-.439-4.537-.585-.732-1.976-.951-6.147-1.025h-1.317v-3.439h25.319c12.294,0,19.319,4.756,19.319,13.098,0,7.391-5.049,11.635-15.587,13.099,5.708,1.464,8.562,4.537,10.172,11.269l1.171,4.61c1.244,5.049,1.976,6.293,3.659,6.293,1.976,0,2.854-2.195,3.147-7.244h3.073c-.22,8.781-3.073,12.806-9.074,12.806-5.781,0-8.488-3.366-9.367-11.635l-.366-3.732c-.805-8.049-3.732-11.05-11.123-11.342h-4.244v16.684ZM489.436,26.929c3.513,0,6.805-.951,8.635-2.488,1.903-1.537,2.854-4.391,2.854-8.122,0-6.659-3.293-9.732-10.537-9.732h-3.952c-4.829-.073-5.195.22-5.049,4.244v16.099h8.049Z" fill="#1a1a1a"/><path d="M565.096,47.857c1.683,4.171,2.342,4.61,6.147,4.683h1.025v3.439h-22.684v-3.439h3.073c2.708,0,4.537-.732,4.537-1.903,0-.366-.146-.805-.585-1.976l-3.952-9.806h-19.392l-2.415,6.439c-.439,1.244-.659,2.122-.659,3.073,0,2.781,1.976,4.171,5.927,4.171h1.464v3.439h-19.392v-3.439h.293c4.171-.293,6.073-2.049,8.049-7.757l16.831-42.661h3.073l18.66,45.735ZM534.728,34.905h16.391l-8.269-20.782-8.122,20.782Z" fill="#1a1a1a"/><path d="M616.683,23.489h-3.147c-.585-4.171-1.317-7.317-2.415-10.025-1.83-4.39-5.415-6.878-9.879-6.878-2.415,0-3.439.805-3.439,2.634v37.759c0,3.732,0,3.878.439,4.537.585.732,1.976,1.025,6.074,1.025h1.903v3.439h-25.099v-3.439h1.903c4.171,0,5.561-.293,6.147-1.025.439-.659.439-.805.439-4.537V9.22c0-1.829-1.025-2.634-3.439-2.634-4.976,0-8.488,2.708-10.391,8.122-.878,2.342-1.464,5.122-1.976,8.781h-3.146l1.098-20.343h43.832l1.098,20.343Z" fill="#1a1a1a"/><path d="M621.583,3.146h24.221v3.439h-1.464c-4.171.073-5.488.293-6.074,1.025-.439.659-.439.805-.439,4.537v34.832c0,3.732,0,3.878.439,4.537.585.805,1.976,1.025,6.074,1.025h1.464v3.439h-24.221v-3.439h1.464c4.171,0,5.561-.293,6.147-1.025.439-.659.439-.878.439-4.537V12.147c0-3.659,0-3.878-.439-4.537-.585-.732-1.976-.951-6.147-1.025h-1.464v-3.439Z" fill="#1a1a1a"/><path d="M696.441,23.782h-3.22c-1.756-5.781-2.781-8.488-4.171-10.903-2.781-4.683-7.317-7.391-12.44-7.391-4.757,0-9.22,2.561-11.489,6.659-2.488,4.391-3.586,9.879-3.586,18.221,0,15.806,5.122,23.27,15.952,23.27,9.001,0,14.562-5.415,16.538-16.318l3.439.585c-1.683,12.294-9.147,19.172-20.855,19.172-14.416,0-24.734-11.196-24.734-27.002,0-7.537,2.195-13.684,6.879-19.245,4.903-5.854,10.83-8.781,17.782-8.781,5.049,0,7.757,1.024,13.099,4.903l2.927-4.318h2.781l1.098,21.148Z" fill="#1a1a1a"/><path d="M737.05,3.146h24.002v3.439h-1.39c-4.171.073-5.561.293-6.073,1.025-.512.659-.512.805-.512,4.537v24.221c0,7.171-.805,11.562-2.708,14.489-2.561,4.098-7.244,6.22-13.757,6.22-4.391,0-7.757-1.025-10.245-3.147-2.635-2.195-4.244-5.781-4.244-9.293,0-5.196,3.073-8.927,7.317-8.927,3.22,0,5.488,2.195,5.488,5.269,0,3-1.976,5.268-4.61,5.268-.878,0-1.464-.073-2.708-.366h-.22c-.512,0-.878.512-.878,1.171,0,.878.585,2.342,1.39,3.366,1.537,1.976,4.39,3.22,7.464,3.22,4.244,0,7.244-2.195,8.635-6.293.732-2.268.951-5.195.951-11.635V12.147c0-3.732,0-3.878-.439-4.537-.585-.732-1.976-.951-6.147-1.025h-1.317v-3.439Z" fill="#1a1a1a"/><path d="M800.053,3.146h20.855v3.439c-7.098.366-8.562,2.488-8.488,12.44v16.611c0,6.513-.878,10.391-3.22,13.757-3.513,5.195-9.22,7.683-17.489,7.683s-14.709-2.708-18.074-7.537c-1.39-2.049-1.976-4.391-2.195-8.269V12.147c0-3.732,0-3.878-.439-4.537-.585-.732-1.976-.951-6.073-1.025h-1.244v-3.439h23.928v3.439h-1.39c-4.171.073-5.561.293-6.147,1.025-.439.659-.439.805-.439,4.537v24.514c0,6.805.366,8.562,2.342,11.269,2.415,3.293,6.659,5.196,11.708,5.196,5.927,0,10.684-2.635,13.025-7.171,1.39-2.561,1.756-4.903,1.756-10.757v-16.172c0-10.025-1.39-12.074-8.415-12.44v-3.439Z" fill="#1a1a1a"/><path d="M861.885,21.733h-3.147c-.878-3.732-2.269-6.805-4.391-9.806-2.927-4.171-7.098-6.366-12.22-6.366-6.22,0-10.391,3.513-10.391,8.635,0,4.464,3.074,7.317,9.586,9.001l7.83,1.976c5.854,1.464,8.708,2.708,10.684,4.61,2.927,2.781,4.391,6.586,4.391,11.196,0,9.806-6.879,16.099-17.635,16.099-6.439,0-10.464-1.464-15.367-5.488l-3.293,4.976h-2.854l-.293-20.855h3.146c1.098,5.634,2.635,9.147,5.708,12.513,3.439,3.805,7.318,5.488,12.733,5.488,4.025,0,6.439-.805,8.854-2.854,2.195-2.049,3.293-4.464,3.293-7.391,0-2.854-1.171-5.269-3.366-6.952-1.537-1.171-2.049-1.317-7.464-2.708l-6.952-1.756c-10.757-2.781-14.708-6.732-14.708-14.709,0-9.22,6.366-15.294,16.026-15.294,5.195,0,9.806,1.756,13.318,5.049l2.927-4.39h2.708l.878,19.026Z" fill="#1a1a1a"/><path d="M914.496,23.489h-3.146c-.585-4.171-1.317-7.317-2.415-10.025-1.829-4.39-5.415-6.878-9.879-6.878-2.415,0-3.439.805-3.439,2.634v37.759c0,3.732,0,3.878.439,4.537.585.732,1.976,1.025,6.073,1.025h1.903v3.439h-25.099v-3.439h1.903c4.171,0,5.561-.293,6.147-1.025.439-.659.439-.805.439-4.537V9.22c0-1.829-1.025-2.634-3.439-2.634-4.976,0-8.488,2.708-10.391,8.122-.878,2.342-1.464,5.122-1.976,8.781h-3.146l1.098-20.343h43.832l1.097,20.343Z" fill="#1a1a1a"/><path d="M919.397,3.146h24.221v3.439h-1.463c-4.171.073-5.488.293-6.073,1.025-.439.659-.439.805-.439,4.537v34.832c0,3.732,0,3.878.439,4.537.585.805,1.975,1.025,6.073,1.025h1.463v3.439h-24.221v-3.439h1.463c4.171,0,5.561-.293,6.147-1.025.439-.659.439-.878.439-4.537V12.147c0-3.659,0-3.878-.439-4.537-.585-.732-1.975-.951-6.147-1.025h-1.463v-3.439Z" fill="#1a1a1a"/><path d="M994.255,23.782h-3.219c-1.756-5.781-2.781-8.488-4.171-10.903-2.78-4.683-7.317-7.391-12.44-7.391-4.756,0-9.22,2.561-11.489,6.659-2.488,4.391-3.586,9.879-3.586,18.221,0,15.806,5.122,23.27,15.953,23.27,9.001,0,14.562-5.415,16.538-16.318l3.439.585c-1.683,12.294-9.147,19.172-20.855,19.172-14.416,0-24.733-11.196-24.733-27.002,0-7.537,2.195-13.684,6.878-19.245,4.903-5.854,10.83-8.781,17.782-8.781,5.049,0,7.757,1.024,13.098,4.903l2.927-4.318h2.781l1.097,21.148Z" fill="#1a1a1a"/><path d="M1046.354,21.806h-3.147c-2.341-12.659-5.342-15.294-17.342-15.22h-3.805c-3.952.073-4.683.585-4.61,3.659v16.684h1.756c6.952,0,9.806-2.854,10.245-10.025h3.439v24.002h-3.439c-.293-8.122-3-10.83-10.537-10.537h-1.463v18.66c-.22,2.635.878,3.366,5.268,3.513h4.83c11.196-.293,14.196-3.074,16.976-16.099h3.22l-1.463,19.538h-44.93v-3.439h1.317c4.171,0,5.561-.293,6.147-1.025.439-.659.439-.805.439-4.537V12.147c0-3.732,0-3.878-.439-4.537-.586-.732-1.976-.951-6.147-1.025h-1.317v-3.439h43.979l1.025,18.66Z" fill="#1a1a1a"/><path d="M205.105,89.82c0,1.281-.318,2.373-.954,3.275s-1.525,1.589-2.669,2.063-2.489.71-4.036.71c-.818,0-1.592-.039-2.321-.118s-1.4-.192-2.011-.34-1.148-.33-1.612-.547v-2.41c.739.306,1.641.589,2.706.85s2.178.392,3.341.392c1.084,0,2.001-.145,2.75-.436s1.318-.71,1.708-1.257.584-1.205.584-1.974c0-.739-.163-1.358-.488-1.856s-.865-.951-1.619-1.36-1.782-.845-3.083-1.308c-.917-.325-1.725-.683-2.425-1.072s-1.286-.83-1.759-1.323-.83-1.065-1.072-1.715-.362-1.395-.362-2.233c0-1.153.293-2.141.88-2.964s1.4-1.454,2.44-1.892,2.235-.658,3.585-.658c1.153,0,2.22.108,3.201.325s1.88.508,2.698.872l-.784,2.159c-.779-.325-1.604-.596-2.476-.813s-1.772-.325-2.698-.325-1.708.136-2.343.407-1.121.653-1.456,1.146-.503,1.079-.503,1.759c0,.759.16,1.39.481,1.892s.833.949,1.538,1.338,1.639.796,2.802,1.22c1.272.463,2.351.954,3.238,1.471s1.562,1.148,2.026,1.892.695,1.688.695,2.831Z" fill="#1a1a1a"/><path d="M225.801,79.101c1.932,0,3.366.434,4.302,1.301s1.405,2.252,1.405,4.155v11.015h-1.789l-.473-2.395h-.118c-.453.591-.927,1.087-1.419,1.486s-1.062.7-1.708.902-1.437.303-2.373.303c-.986,0-1.86-.172-2.624-.517s-1.365-.867-1.804-1.567-.658-1.587-.658-2.661c0-1.616.641-2.858,1.922-3.726s3.233-1.341,5.855-1.419l2.794-.118v-.991c0-1.4-.301-2.38-.902-2.942s-1.449-.843-2.543-.843c-.848,0-1.656.123-2.425.37s-1.498.537-2.188.872l-.754-1.863c.729-.375,1.567-.695,2.513-.961s1.942-.399,2.987-.399ZM229.083,87.587l-2.469.103c-2.021.079-3.445.409-4.273.991s-1.242,1.405-1.242,2.469c0,.927.281,1.612.843,2.055s1.306.665,2.233.665c1.439,0,2.617-.399,3.534-1.198s1.375-1.996,1.375-3.593v-1.493Z" fill="#1a1a1a"/><path d="M250.726,95.571l-6.151-16.204h2.632l3.563,9.802c.246.67.498,1.41.754,2.218s.434,1.459.532,1.952h.103c.118-.493.315-1.146.591-1.959s.527-1.55.754-2.21l3.563-9.802h2.632l-6.165,16.204h-2.809Z" fill="#1a1a1a"/><path d="M274.142,73.305c.404,0,.752.131,1.042.392s.436.668.436,1.22c0,.542-.145.946-.436,1.212s-.638.399-1.042.399c-.424,0-.776-.133-1.057-.399s-.421-.67-.421-1.212c0-.552.14-.959.421-1.22s.633-.392,1.057-.392ZM275.34,79.367v16.204h-2.454v-16.204h2.454Z" fill="#1a1a1a"/><path d="M298.801,79.071c1.922,0,3.376.471,4.362,1.412s1.479,2.452,1.479,4.532v10.556h-2.425v-10.394c0-1.35-.308-2.361-.924-3.031s-1.56-1.005-2.831-1.005c-1.794,0-3.056.508-3.785,1.523s-1.094,2.489-1.094,4.421v8.487h-2.454v-16.204h1.981l.37,2.336h.133c.345-.572.784-1.052,1.316-1.442s1.129-.685,1.789-.887,1.355-.303,2.085-.303Z" fill="#1a1a1a"/><path d="M324.819,102.845c-2.129,0-3.77-.397-4.923-1.19s-1.73-1.905-1.73-3.334c0-1.015.323-1.883.968-2.602s1.54-1.198,2.683-1.434c-.424-.197-.786-.493-1.087-.887s-.451-.848-.451-1.36c0-.591.165-1.111.495-1.56s.835-.88,1.515-1.294c-.848-.345-1.535-.929-2.063-1.752s-.791-1.782-.791-2.876c0-1.163.241-2.156.724-2.979s1.183-1.451,2.099-1.885,2.026-.651,3.327-.651c.286,0,.574.012.865.037s.569.059.835.103.498.096.695.155h5.559v1.582l-2.987.37c.296.384.542.848.739,1.39s.296,1.143.296,1.804c0,1.616-.547,2.9-1.641,3.851s-2.597,1.427-4.509,1.427c-.453,0-.917-.039-1.39-.118-.483.266-.85.562-1.101.887s-.377.7-.377,1.124c0,.315.096.567.288.754s.471.323.835.407.803.126,1.316.126h2.854c1.764,0,3.117.37,4.058,1.109s1.412,1.819,1.412,3.238c0,1.794-.729,3.169-2.188,4.125s-3.568,1.434-6.328,1.434ZM324.893,100.923c1.341,0,2.452-.136,3.334-.407s1.543-.66,1.981-1.168.658-1.111.658-1.811c0-.651-.148-1.141-.444-1.471s-.729-.552-1.301-.665-1.272-.17-2.099-.17h-2.809c-.729,0-1.365.113-1.907.34s-.959.562-1.249,1.005-.436.996-.436,1.656c0,.877.37,1.545,1.109,2.003s1.794.688,3.164.688ZM325.529,87.972c1.173,0,2.055-.296,2.647-.887s.887-1.454.887-2.587c0-1.212-.301-2.122-.902-2.728s-1.488-.909-2.661-.909c-1.124,0-1.989.313-2.595.939s-.909,1.54-.909,2.743c0,1.104.306,1.952.917,2.543s1.483.887,2.617.887Z" fill="#1a1a1a"/><path d="M383.332,84.556c0,2.435-.444,4.468-1.331,6.099s-2.171,2.858-3.851,3.681-3.718,1.235-6.114,1.235h-5.87v-21.616h6.52c2.198,0,4.091.402,5.677,1.205s2.812,1.991,3.674,3.563,1.294,3.516,1.294,5.833ZM380.686,84.645c0-1.942-.323-3.543-.968-4.805s-1.592-2.201-2.839-2.817-2.772-.924-4.576-.924h-3.622v17.313h3.06c2.977,0,5.212-.734,6.705-2.203s2.24-3.657,2.24-6.565Z" fill="#1a1a1a"/><path d="M404.605,79.071c1.38,0,2.563.306,3.548.917s1.74,1.466,2.262,2.565.784,2.383.784,3.851v1.523h-11.192c.03,1.902.503,3.351,1.419,4.347s2.208,1.493,3.874,1.493c1.025,0,1.932-.094,2.72-.281s1.607-.463,2.454-.828v2.159c-.818.365-1.629.631-2.432.798s-1.752.251-2.846.251c-1.557,0-2.915-.318-4.073-.954s-2.058-1.57-2.698-2.802-.961-2.74-.961-4.524c0-1.745.293-3.255.88-4.532s1.414-2.26,2.484-2.95,2.329-1.035,3.778-1.035ZM404.575,81.082c-1.311,0-2.356.429-3.134,1.286s-1.242,2.055-1.39,3.593h8.575c-.01-.966-.16-1.816-.451-2.55s-.732-1.306-1.323-1.715-1.35-.614-2.277-.614Z" fill="#1a1a1a"/><path d="M443.561,79.071c1.784,0,3.129.466,4.036,1.397s1.36,2.427,1.36,4.487v10.616h-2.425v-10.497c0-1.311-.283-2.294-.85-2.95s-1.407-.983-2.521-.983c-1.567,0-2.706.453-3.415,1.36s-1.065,2.242-1.065,4.007v9.063h-2.44v-10.497c0-.877-.126-1.607-.377-2.188s-.626-1.018-1.124-1.308-1.126-.436-1.885-.436c-1.074,0-1.937.222-2.587.665s-1.121,1.101-1.412,1.974-.436,1.944-.436,3.216v8.575h-2.454v-16.204h1.981l.37,2.292h.133c.325-.562.734-1.035,1.227-1.419s1.045-.675,1.656-.872,1.262-.296,1.952-.296c1.232,0,2.265.229,3.097.688s1.437,1.156,1.811,2.092h.133c.532-.936,1.262-1.634,2.188-2.092s1.942-.688,3.046-.688Z" fill="#1a1a1a"/><path d="M478.569,87.439c0,1.331-.172,2.518-.517,3.563s-.843,1.927-1.493,2.647-1.437,1.269-2.358,1.649-1.964.569-3.127.569c-1.084,0-2.077-.19-2.979-.569s-1.681-.929-2.336-1.649-1.163-1.602-1.523-2.647-.54-2.233-.54-3.563c0-1.774.301-3.285.902-4.532s1.461-2.198,2.58-2.854,2.452-.983,3.999-.983c1.479,0,2.772.33,3.881.991s1.971,1.614,2.587,2.861.924,2.752.924,4.517ZM466.238,87.439c0,1.301.172,2.43.517,3.386s.877,1.695,1.597,2.218,1.646.784,2.78.784c1.124,0,2.048-.261,2.772-.784s1.259-1.262,1.604-2.218.517-2.085.517-3.386c0-1.291-.172-2.407-.517-3.349s-.877-1.668-1.597-2.181-1.651-.769-2.794-.769c-1.685,0-2.92.557-3.704,1.671s-1.175,2.656-1.175,4.628Z" fill="#1a1a1a"/><path d="M499.9,95.867c-1.459,0-2.745-.301-3.859-.902s-1.981-1.518-2.602-2.75-.931-2.785-.931-4.657c0-1.961.328-3.566.983-4.813s1.56-2.171,2.713-2.772,2.464-.902,3.933-.902c.808,0,1.589.081,2.343.244s1.373.367,1.856.614l-.739,2.055c-.493-.197-1.062-.375-1.708-.532s-1.249-.237-1.811-.237c-1.124,0-2.058.241-2.802.724s-1.301,1.193-1.671,2.129-.554,2.09-.554,3.46c0,1.311.18,2.43.54,3.356s.897,1.634,1.612,2.122,1.609.732,2.683.732c.858,0,1.631-.091,2.321-.274s1.316-.397,1.878-.643v2.188c-.542.276-1.146.488-1.811.636s-1.456.222-2.373.222Z" fill="#1a1a1a"/><path d="M525.875,79.071c.325,0,.665.017,1.02.052s.67.081.946.14l-.31,2.277c-.266-.069-.562-.123-.887-.163s-.631-.059-.917-.059c-.651,0-1.264.131-1.841.392s-1.082.636-1.515,1.124-.774,1.074-1.02,1.759-.37,1.446-.37,2.284v8.694h-2.469v-16.204h2.04l.266,2.987h.103c.335-.601.739-1.151,1.212-1.649s1.023-.894,1.649-1.19,1.323-.444,2.092-.444Z" fill="#1a1a1a"/><path d="M547.547,79.101c1.932,0,3.366.434,4.302,1.301s1.405,2.252,1.405,4.155v11.015h-1.789l-.473-2.395h-.118c-.453.591-.927,1.087-1.419,1.486s-1.062.7-1.708.902-1.437.303-2.373.303c-.986,0-1.86-.172-2.624-.517s-1.365-.867-1.804-1.567-.658-1.587-.658-2.661c0-1.616.641-2.858,1.922-3.726s3.233-1.341,5.855-1.419l2.794-.118v-.991c0-1.4-.301-2.38-.902-2.942s-1.449-.843-2.543-.843c-.848,0-1.656.123-2.425.37s-1.498.537-2.188.872l-.754-1.863c.729-.375,1.567-.695,2.513-.961s1.942-.399,2.987-.399ZM550.829,87.587l-2.469.103c-2.021.079-3.445.409-4.273.991s-1.242,1.405-1.242,2.469c0,.927.281,1.612.843,2.055s1.306.665,2.233.665c1.439,0,2.617-.399,3.534-1.198s1.375-1.996,1.375-3.593v-1.493Z" fill="#1a1a1a"/><path d="M575.399,95.867c-1.459,0-2.745-.301-3.859-.902s-1.981-1.518-2.602-2.75-.931-2.785-.931-4.657c0-1.961.328-3.566.983-4.813s1.56-2.171,2.713-2.772,2.464-.902,3.933-.902c.808,0,1.589.081,2.343.244s1.373.367,1.856.614l-.739,2.055c-.493-.197-1.062-.375-1.708-.532s-1.249-.237-1.811-.237c-1.124,0-2.058.241-2.802.724s-1.301,1.193-1.671,2.129-.554,2.09-.554,3.46c0,1.311.18,2.43.54,3.356s.897,1.634,1.612,2.122,1.609.732,2.683.732c.858,0,1.631-.091,2.321-.274s1.316-.397,1.878-.643v2.188c-.542.276-1.146.488-1.811.636s-1.456.222-2.373.222Z" fill="#1a1a1a"/><path d="M591.452,79.367h2.632l3.578,9.403c.207.552.399,1.082.577,1.589s.335.993.473,1.456.246.912.325,1.345h.103c.138-.493.335-1.141.591-1.944s.532-1.624.828-2.462l3.386-9.388h2.647l-7.052,18.585c-.375.996-.811,1.863-1.308,2.602s-1.101,1.308-1.811,1.708-1.567.599-2.573.599c-.463,0-.872-.027-1.227-.081s-.66-.116-.917-.185v-1.966c.217.049.481.094.791.133s.633.059.968.059c.611,0,1.141-.116,1.589-.347s.835-.569,1.161-1.013.606-.971.843-1.582l.887-2.277-6.491-16.234Z" fill="#1a1a1a"/><path d="M651.429,95.542l-2.883-9.433c-.128-.404-.249-.801-.362-1.19s-.217-.764-.31-1.124-.177-.695-.251-1.005-.136-.579-.185-.806h-.103c-.039.227-.094.495-.163.806s-.15.648-.244,1.013-.195.747-.303,1.146-.232.801-.37,1.205l-3.016,9.388h-2.765l-4.465-16.204h2.543l2.336,8.945c.158.591.308,1.175.451,1.752s.266,1.119.37,1.626.18.949.229,1.323h.118c.059-.246.126-.542.2-.887s.158-.712.251-1.101.195-.779.303-1.168.217-.756.325-1.101l2.987-9.388h2.647l2.883,9.374c.148.473.293.966.436,1.479s.274,1.008.392,1.486.202.904.251,1.279h.118c.039-.335.113-.749.222-1.242s.234-1.035.377-1.626.293-1.193.451-1.804l2.366-8.945h2.499l-4.48,16.204h-2.854Z" fill="#1a1a1a"/><path d="M673.559,73.305c.404,0,.752.131,1.042.392s.436.668.436,1.22c0,.542-.145.946-.436,1.212s-.638.399-1.042.399c-.424,0-.776-.133-1.057-.399s-.421-.67-.421-1.212c0-.552.14-.959.421-1.22s.633-.392,1.057-.392ZM674.757,79.367v16.204h-2.454v-16.204h2.454Z" fill="#1a1a1a"/><path d="M695.778,93.856c.404,0,.818-.034,1.242-.103s.769-.153,1.035-.251v1.907c-.286.128-.683.237-1.19.325s-1.003.133-1.486.133c-.858,0-1.636-.15-2.336-.451s-1.259-.811-1.678-1.53-.628-1.715-.628-2.987v-9.61h-2.306v-1.198l2.321-.961.976-3.519h1.479v3.755h4.746v1.922h-4.746v9.536c0,1.015.234,1.774.702,2.277s1.092.754,1.87.754Z" fill="#1a1a1a"/><path d="M714.389,72.566v6.875c0,.394-.01.791-.03,1.19s-.054.766-.103,1.101h.163c.335-.572.761-1.052,1.279-1.442s1.106-.685,1.767-.887,1.36-.303,2.099-.303c1.301,0,2.388.207,3.26.621s1.528,1.055,1.966,1.922.658,1.991.658,3.371v10.556h-2.425v-10.394c0-1.35-.308-2.361-.924-3.031s-1.56-1.005-2.831-1.005c-1.203,0-2.161.229-2.876.688s-1.227,1.131-1.538,2.018-.466,1.971-.466,3.253v8.472h-2.454v-23.005h2.454Z" fill="#1a1a1a"/><path d="M765.584,73.955c2.789,0,4.827.545,6.114,1.634s1.929,2.649,1.929,4.679c0,.917-.15,1.787-.451,2.61s-.786,1.547-1.456,2.173-1.55,1.119-2.639,1.479-2.422.54-3.999.54h-2.632v8.501h-2.513v-21.616h5.648ZM765.347,76.099h-2.898v8.812h2.351c1.38,0,2.531-.148,3.452-.444s1.614-.776,2.077-1.442.695-1.55.695-2.654c0-1.439-.458-2.511-1.375-3.216s-2.351-1.057-4.302-1.057Z" fill="#1a1a1a"/><path d="M795.742,79.071c.325,0,.665.017,1.02.052s.67.081.946.14l-.31,2.277c-.266-.069-.562-.123-.887-.163s-.631-.059-.917-.059c-.651,0-1.264.131-1.841.392s-1.082.636-1.515,1.124-.774,1.074-1.02,1.759-.37,1.446-.37,2.284v8.694h-2.469v-16.204h2.04l.266,2.987h.103c.335-.601.739-1.151,1.212-1.649s1.023-.894,1.649-1.19,1.323-.444,2.092-.444Z" fill="#1a1a1a"/><path d="M825.324,87.439c0,1.331-.172,2.518-.517,3.563s-.843,1.927-1.493,2.647-1.437,1.269-2.358,1.649-1.964.569-3.127.569c-1.084,0-2.077-.19-2.979-.569s-1.681-.929-2.336-1.649-1.163-1.602-1.523-2.647-.54-2.233-.54-3.563c0-1.774.301-3.285.902-4.532s1.461-2.198,2.58-2.854,2.452-.983,3.999-.983c1.479,0,2.772.33,3.881.991s1.971,1.614,2.587,2.861.924,2.752.924,4.517ZM812.994,87.439c0,1.301.172,2.43.517,3.386s.877,1.695,1.597,2.218,1.646.784,2.78.784c1.124,0,2.048-.261,2.772-.784s1.259-1.262,1.604-2.218.517-2.085.517-3.386c0-1.291-.172-2.407-.517-3.349s-.877-1.668-1.597-2.181-1.651-.769-2.794-.769c-1.685,0-2.92.557-3.704,1.671s-1.175,2.656-1.175,4.628Z" fill="#1a1a1a"/><path d="M854.137,87.439c0,1.331-.172,2.518-.517,3.563s-.843,1.927-1.493,2.647-1.437,1.269-2.358,1.649-1.964.569-3.127.569c-1.084,0-2.077-.19-2.979-.569s-1.681-.929-2.336-1.649-1.163-1.602-1.523-2.647-.54-2.233-.54-3.563c0-1.774.301-3.285.902-4.532s1.461-2.198,2.58-2.854,2.452-.983,3.999-.983c1.479,0,2.772.33,3.881.991s1.971,1.614,2.587,2.861.924,2.752.924,4.517ZM841.807,87.439c0,1.301.172,2.43.517,3.386s.877,1.695,1.597,2.218,1.646.784,2.78.784c1.124,0,2.048-.261,2.772-.784s1.259-1.262,1.604-2.218.517-2.085.517-3.386c0-1.291-.172-2.407-.517-3.349s-.877-1.668-1.597-2.181-1.651-.769-2.794-.769c-1.685,0-2.92.557-3.704,1.671s-1.175,2.656-1.175,4.628Z" fill="#1a1a1a"/><path d="M876.194,81.289h-4.036v14.282h-2.454v-14.282h-2.868v-1.183l2.868-.813v-1.079c0-1.36.202-2.467.606-3.319s.991-1.481,1.759-1.885,1.705-.606,2.809-.606c.621,0,1.19.054,1.708.163s.973.232,1.368.37l-.636,1.937c-.335-.108-.712-.209-1.131-.303s-.845-.14-1.279-.14c-.936,0-1.629.303-2.077.909s-.673,1.555-.673,2.846v1.183h4.036v1.922Z" fill="#1a1a1a"/></svg>