<?xml version="1.0" encoding="UTF-8"?><svg id="a" xmlns="http://www.w3.org/2000/svg" viewBox="0 0 359.661 237.87"><path d="M73.081,14.329h-37.831v209.211h37.831v14.329H0V0h73.081v14.329Z"/><path d="M130.395,188.863c0,10.318-8.311,18.915-18.342,18.915-10.603,0-19.202-8.311-19.202-18.628,0-10.604,8.311-18.915,18.629-18.915,10.603,0,18.914,8.311,18.914,18.628ZM200.611,46.714c0,10.031-8.311,18.628-18.342,18.628-10.891,0-19.202-8.311-19.202-18.628,0-10.604,8.31-18.915,18.628-18.915,10.604,0,18.915,8.311,18.915,18.915ZM270.825,188.863c0,10.318-8.598,18.915-18.342,18.915-10.89,0-19.202-8.311-19.202-18.628,0-10.604,8.311-18.915,18.628-18.915s18.915,8.597,18.915,18.628Z"/><path d="M286.581,223.541h37.83V14.329h-37.83V0h73.08v237.87h-73.08v-14.329Z"/></svg>