<?xml version="1.0" encoding="UTF-8"?>
<svg id="Layer_1" xmlns="http://www.w3.org/2000/svg" version="1.1" viewBox="269 360 542 360">
  <!-- Generator: Adobe Illustrator 29.7.1, SVG Export Plug-In . SVG Version: 2.1.1 Build 8)  -->
  <defs>
    <style>
      .st0 {
        fill: #1a1a1a;
      }
    </style>
  </defs>
  <path class="st0" d="M379.3,382.53h-56.95v314.95h56.95v21.57h-110.02v-358.09h110.02v21.57Z"/>
  <path class="st0" d="M465.58,645.27c0,15.53-12.51,28.48-27.61,28.48-15.96,0-28.91-12.51-28.91-28.04s12.51-28.48,28.04-28.48,28.47,12.51,28.47,28.04ZM571.28,431.28c0,15.1-12.51,28.04-27.61,28.04-16.4,0-28.91-12.51-28.91-28.04s12.51-28.48,28.04-28.48,28.48,12.51,28.48,28.48ZM676.98,645.27c0,15.53-12.94,28.48-27.61,28.48-16.39,0-28.91-12.51-28.91-28.04s12.51-28.48,28.04-28.48,28.48,12.94,28.48,28.04Z"/>
  <path class="st0" d="M700.7,697.47h56.95v-314.95h-56.95v-21.57h110.02v358.09h-110.02v-21.57Z"/>
</svg>
