<?xml version="1.0" encoding="UTF-8"?><svg id="a" xmlns="http://www.w3.org/2000/svg" xmlns:xlink="http://www.w3.org/1999/xlink" viewBox="0 0 143.97 42.594"><defs><clipPath id="b"><polygon points="75.025 1.023 68.423 1.023 64.625 1.023 50.129 1.023 50.129 42.316 68.423 42.316 68.423 10.334 75.025 10.334 75.025 1.023" fill="none"/></clipPath></defs><path d="M108.122,15.238c-7.443-2.146-18.077-2.237-25.891-2.392-1.847-.037-3.701.039-5.547.005,1.628-3.194,3.643-6.222,5.635-9.209l-.043-.843c-.698-.136-.937.462-1.289.915l-5.577,9.075-16.308.317c-.015-.014.004-.089.04-.193-.021,0-.041.003-.062.003-.333,0-.644-.033-.942-.083-.036.093-.084.182-.119.275l-7.644.383-6.69.507,4.276-7.259c.181-.378-.079-.812-.511-.772-.326.03-.852,1.037-1.064,1.369-1.394,2.182-2.563,4.535-3.867,6.771-6.024.455-11.979,1.463-17.94,2.38-.857.801-.024,1.006.824.951,3.071-.201,6.79-1.212,9.955-1.637,2.175-.292,4.382-.398,6.544-.781.092.117-1.214,2.347-1.378,2.633-2.022,3.521-4.68,7.159-7.664,9.917-1.781,1.646-7.619,6.261-5.49.148,1.97-.634,4.034-1.547,5.426-3.142,1.661-1.903,1.06-3.955-1.631-2.905-2.212.862-3.552,3.47-4.683,5.382l-3.63,1.06c-1.232-1.849-3.44-2.459-5.511-2.863-2.85-.556-10.579-.741-12.466-2.631-1.474-1.477.218-4.059,1.177-5.421,4.21-5.981,12.503-11.945,19.076-15.068.516-.245,2.91-1.1,3.081-1.379.239-.388-.1-.737-.506-.747-.574-.015-4.629,2.041-5.422,2.464C16.605,5.495,6.32,13.171,3.786,19.134c-1.699,3.998,1.419,5.24,4.714,5.906,3.029.613,11.159.71,13.072,2.981.119.141.211.307.201.498-6.545,2.309-13.761,4.998-19.225,9.379-.972.779-3.871,3.218-1.843,4.365,1.737.983,6.274-.477,8.139-1.127,4.054-1.414,13.868-6.083,14.329-10.896.044-.464-.221-1.046.134-1.264.235-.144,2.81-.937,2.924-.836-.915,3.158.709,4.426,3.557,2.855,2.567-1.415,4.704-3.939,6.7-6.041l-1.467,3.629c-.36.882-.901,3.174.689,3.118.759-.027,2.951-1.952,3.584-2.54,1.169-1.085,2.153-2.346,3.31-3.443l-1.458,4.412c-.109.482.383,1.053.846.846l6.856-6.66-1.302,3.412c-.555,1.634-.426,3.535,1.753,3.408,1.089-.063,2.57-1.128,3.474-1.748.482-.33,1.906-1.3,2.213-1.67.259-.313.2-.663-.169-.835-.958.512-1.774,1.365-2.704,1.973-2.116,1.382-4.902,2.86-3.547-1.254.322-.977,1.492-2.862,1.596-3.638.128-.951-.714-1.018-1.416-.641-1.914,1.028-4.317,4.06-5.978,5.616-.085.08-.183.393-.356.154,1.781-5.225,5.099-9.697,7.916-14.38.494-.555,2.227-.294,2.984-.329.271-.012.515-.12.76-.131,1.25-.057,2.51.011,3.758-.129-.006.071.002.133-.002.201.283-.045.577-.076.891-.076.041,0,.079.005.119.006.005-.045.002-.086.009-.132l16.053-.38c-1.544,2.84-3.223,5.629-4.653,8.532-.823,1.67-1.966,3.867-2.371,5.655-.773,3.414,1.285,3.074,3.317,1.406,1.06-.87,1.925-2.005,2.88-2.981-.011.77-.581,1.435-.583,2.229-.004,1.84,1.293,1.598,2.419.753.73-.548,1.664-1.609,2.178-2.345.209-.034.125.167.112.302-.109,1.103-.518,2.78,1.292,2.312,1.095-.283,4.069-3.152,4.968-4.077.539-.554,1.48-2.066,2.229-2.114.166-.011,1.019.031.941.313-.241.867-1.523,2.395-1.966,3.387-.364.814-1.057,2.762.318,3.011,1.539.28,4.484-3.001,5.547-4.027l-.956,2.867.029.672.567.192c1.85-2.141,3.607-4.408,5.966-6.024.166.082.005.351-.029.481-.275,1.08-1.811,4.038-1.541,4.908.057.185.239.288.396.378.48.197,1.1-1.074,1.426-1.437,1.356-1.508,2.966-2.99,4.589-4.202l-1.303,3.156c-.953,4.913,3.237,3.276,5.828,1.879,6.844-3.69,12.912-10.478,1.623-13.732ZM32.407,22.277c.293.03.438.226.401.513-.188,1.459-3.485,3.582-4.92,3.818.494-1.182,3.217-4.464,4.519-4.332ZM21.999,30.977c-1.715,4.862-14.051,10.315-18.893,10.664-3.583.259-1.783-1.534-.249-2.797,4.706-3.874,12.541-7.284,18.341-9.178.354-.115.696-.286,1.084-.252.103.105-.202,1.334-.282,1.564ZM44.351,22.243c-1.689,2.307-5.293,6.361-7.632,7.911-.334.221-1.1.862-1.193.212-.063-.445.919-2.602,1.171-3.164,1.834-4.086,4.207-8.066,6.344-12.002l.227-.155,6.023-.537-4.94,7.735ZM104.106,29.126c-.658.226-1.975.705-2.549.13-.367-.367-.07-1.519.062-1.981.292-1.023,1.778-3.191,1.538-4.014-.253-.867-1.188-.367-1.669-.067-1.568.981-2.886,2.601-4.291,3.798.069-.95,1.488-3.199.9-4.022-.56-.784-2.034.468-2.559.9-1.188.976-2.305,2.324-3.437,3.378.276-.602.464-1.272.74-1.87.315-.683,1.128-1.825,1.248-2.459.113-.597-.412-.848-.847-.452-.38.346-1.131,1.68-1.586,2.235-.888,1.082-3.855,4.141-5.127,4.428-.18.041-.361.039-.543.029.209-1.783,1.611-3.185,2.395-4.675.87-1.653.293-1.795-1.376-1.95-.218-.219,1.161-1.226.874-2.082-.634-.718-1.661.789-1.949,1.326-1.15,2.14-2.284,3.498-4.147,5.154-.312.277-2.517,2.147-2.804,1.845-.056-1.314.631-2.552,1.207-3.697.329-.655,1.326-2.043,1.446-2.64.14-.693-.596-.835-1.056-.282-.614.739-1.203,2.032-1.824,2.889-.781,1.077-1.874,2.372-2.899,3.217-.177.146-1.169.94-1.333.768-.076-.852.266-1.648.577-2.416.41-1.014,2.13-3.691,2.206-4.433.039-.374-.225-.465-.557-.536-.391.01-1.702,2.219-2.046,2.661-1.092,1.404-3.786,4.586-5.368,5.206-.216.085-.433.173-.672.155-.042-1.708.847-3.473,1.546-5.014,1.668-3.676,3.852-7.236,5.78-10.782.096-.132.232-.119.373-.136,1.84-.223,3.899.1,5.736.141,7.741.172,16.207.187,23.79,1.818,2.334.502,7.858,1.82,7.624,4.991-.231,3.118-6.648,7.496-9.4,8.442Z"/><g clip-path="url(#b)"><path d="M112.42,7.444c.071-.897-.499-1.659-1.53-1.764-4.21-.431-10.078,5.434-11.812,8.513-.075.133-.522.987-.468,1.031l13.377-.233,4.575-6.665c.289-.333.485-.772,1.057-.672l.035.619c-1.634,2.194-3.287,4.418-4.622,6.764,1.514.025,3.035-.03,4.55-.003,6.41.114,15.133.181,21.239,1.757,9.26,2.39,4.282,7.375-1.332,10.085-2.126,1.026-5.563,2.228-4.781-1.38l1.069-2.318c-1.331.89-2.652,1.979-3.764,3.086-.268.267-.776,1.2-1.17,1.056-.129-.066-.278-.142-.325-.278-.222-.639,1.038-2.811,1.264-3.604.027-.096.16-.293.024-.353-1.935,1.187-3.376,2.852-4.894,4.424l-.465-.141-.024-.494.784-2.105c-.872.753-3.288,3.163-4.55,2.957-1.128-.184-.559-1.614-.261-2.212.364-.728,1.415-1.85,1.613-2.487.064-.207-.636-.238-.772-.23-.614.035-1.386,1.146-1.828,1.553-.738.679-3.177,2.786-4.075,2.994-1.485.344-1.15-.888-1.06-1.698.011-.099.079-.247-.092-.222-.422.541-1.188,1.32-1.787,1.722-.923.62-1.987.798-1.984-.553.001-.583.469-1.072.478-1.637-.784.717-1.493,1.55-2.363,2.189-1.667,1.225-3.355,1.475-2.721-1.032.332-1.313,1.27-2.927,1.945-4.153,1.173-2.132,2.551-4.18,3.817-6.266l-13.169.279c-.369,2.255,2.588,3.353,4.182,4.631,2.974,2.383,2.795,4.886.205,7.484-1.896,1.902-6.716,4.381-9.618,3.844-.557-.103-1.56-.597-.984-1.174.604.227.724.506,1.456.565,3.96.317,12.268-4.477,9.937-8.616-1.464-2.599-6.356-3.29-6.013-6.734-1.024.103-2.057.053-3.082.095-.201.008-.401.087-.624.096-.621.025-2.043-.166-2.448.241-2.311,3.439-5.033,6.723-6.494,10.561.142.176.222-.054.292-.113,1.362-1.142,3.333-3.37,4.903-4.124.576-.277,1.267-.227,1.162.471-.086.57-1.045,1.954-1.309,2.672-1.111,3.021,1.174,1.936,2.91.921.763-.446,1.433-1.073,2.218-1.449.303.127.352.384.139.614-.252.272-1.42.984-1.815,1.227-.742.456-1.957,1.237-2.85,1.284-1.788.093-1.893-1.303-1.438-2.503l1.068-2.506-5.624,4.891c-.379.152-.783-.268-.694-.622l1.196-3.241c-.949.805-1.756,1.731-2.715,2.528-.519.432-2.317,1.846-2.94,1.865-1.305.041-.861-1.643-.566-2.29l1.204-2.665c-1.637,1.543-3.39,3.397-5.496,4.436-2.336,1.153-3.669.222-2.918-2.097-.094-.074-2.206.508-2.399.614-.291.161-.073.587-.11.928-.378,3.535-8.429,6.964-11.755,8.002-1.53.478-5.252,1.55-6.676.828-1.663-.843.715-2.633,1.512-3.206,4.482-3.217,10.401-5.192,15.77-6.888.009-.141-.067-.262-.165-.366-1.569-1.668-8.239-1.739-10.723-2.189-2.702-.49-5.26-1.401-3.867-4.338,2.079-4.38,10.515-10.017,15.17-12.243.65-.311,3.977-1.821,4.448-1.81.333.008.611.264.415.549-.14.204-2.104.833-2.527,1.013-5.392,2.293-12.195,6.673-15.649,11.066-.786,1-2.174,2.897-.965,3.981,1.548,1.388,7.888,1.524,10.226,1.932,1.699.297,3.51.745,4.521,2.103l2.978-.778c.928-1.404,2.027-3.319,3.841-3.953,2.208-.771,2.701.736,1.338,2.134-1.142,1.171-2.835,1.842-4.451,2.308-1.747,4.49,3.043,1.1,4.503-.109,2.448-2.026,4.628-4.698,6.287-7.284.135-.21,1.206-1.848,1.131-1.934-1.773.281-3.584.359-5.368.573-2.597.312-5.647,1.055-8.166,1.202-.695.041-1.379-.109-.676-.698,4.89-.674,9.775-1.414,14.717-1.748,1.07-1.642,2.029-3.37,3.172-4.972.174-.244.606-.983.873-1.005.354-.029.568.29.419.567l-3.507,5.331,5.488-.372,6.27-.281c.641-1.571,1.722-3.043,2.876-4.349,2.091-2.367,7.156-6.81,10.845-5.785.899.25,1.733.956,1.702,1.853-.016.464-.197.761-.726.5ZM133.437,27.085c.471.422,1.551.071,2.091-.095,2.258-.695,7.522-3.91,7.711-6.2.192-2.329-4.339-3.297-6.254-3.665-6.221-1.198-13.165-1.209-19.515-1.335-1.507-.03-3.196-.267-4.705-.103-.116.013-.227.003-.306.1-1.582,2.604-3.373,5.219-4.741,7.919-.574,1.132-1.303,2.428-1.268,3.682.196.013.374-.052.551-.114,1.298-.456,3.508-2.793,4.403-3.824.282-.324,1.357-1.947,1.678-1.954.272.052.489.12.457.394-.063.545-1.473,2.511-1.81,3.255-.255.564-.536,1.149-.473,1.774.135.127.948-.456,1.094-.564.84-.62,1.737-1.571,2.378-2.362.51-.629.993-1.579,1.496-2.122.377-.406.981-.302.867.207-.099.439-.916,1.458-1.187,1.939-.472.841-1.036,1.75-.99,2.715.236.222,2.044-1.152,2.3-1.355,1.528-1.216,2.458-2.213,3.402-3.785.237-.394,1.079-1.501,1.599-.974.235.629-.896,1.368-.717,1.529,1.369.114,1.843.218,1.129,1.432-.643,1.094-1.793,2.124-1.965,3.433.149.007.298.009.446-.021,1.043-.21,3.478-2.457,4.206-3.252.373-.407.989-1.387,1.301-1.641.357-.291.788-.107.695.332-.099.466-.766,1.304-1.024,1.806-.226.439-.381.932-.607,1.374.928-.774,1.845-1.764,2.82-2.481.431-.317,1.64-1.237,2.099-.661.483.605-.682,2.257-.738,2.954,1.152-.879,2.233-2.069,3.52-2.789.394-.221,1.162-.588,1.369.049.197.605-1.022,2.197-1.261,2.948-.108.339-.351,1.185-.05,1.455ZM90.562,16.254l-4.94.395-.187.114c-1.753,2.891-3.7,5.814-5.204,8.814-.207.413-1.013,1.996-.961,2.324.076.478.704.007.979-.155,1.919-1.138,4.876-4.116,6.261-5.81l4.052-5.681ZM73.005,25.141c1.177-.174,3.882-1.733,4.036-2.804.03-.211-.089-.355-.329-.377-1.068-.097-3.302,2.313-3.707,3.181ZM68.406,27.201c-.318-.025-.599.101-.889.185-4.758,1.391-11.185,3.896-15.045,6.741-1.259.928-2.735,2.244.204,2.054,3.972-.257,14.092-4.262,15.498-7.832.066-.168.316-1.071.232-1.148Z"/></g></svg>